# xmcd
#
# Track frame offsets: 
#        150
#        19912
#        41515
#        56917
#        75863
#        92548
#        113265
#        129802
#        153424
#        169276
#        193035
#        210863
#        225322
#        244522
#        283255
#        302157
#
# Disc length: 4437 seconds
#
# Revision: 0
# Processed by: cddbd v1.4PL0 Copyright (c) Steve Scherf et al.
# Submitted via: ExactAudioCopy v0.95a3
#
DISCID=bd115310
DTITLE=B.B.King - Two Great Albums
DYEAR=1900
DGENRE=Blues
TTITLE0=To know You Is To love You 1973 - I like To Live The Love
TTITLE1=To know You Is To love You 1973 - Respect Yourself
TTITLE2=To know You Is To love You 1973 - Who Are You
TTITLE3=To know You Is To love You 1973 - Love
TTITLE4=To know You Is To love You 1973 - I Can't Leave
TTITLE5=To know You Is To love You 1973 - To Know You Is To Love You
TTITLE6=To know You Is To love You 1973 - Oh To Me
TTITLE7=To know You Is To love You 1973 - Thank You For Loving The Blu
TTITLE7=es
TTITLE8=Six Silver Strings 1986 - Six Silver Strings
TTITLE9=Six Silver Strings 1986 - Big Boss Man
TTITLE10=Six Silver Strings 1986 - In The Midnight Hour
TTITLE11=Six Silver Strings 1986 - Into The Night
TTITLE12=Six Silver Strings 1986 - My Lucille
TTITLE13=Six Silver Strings 1986 - Memory Lane
TTITLE14=Six Silver Strings 1986 - My Guitar Sings The Blues
TTITLE15=Six Silver Strings 1986 - Double Trouble
EXTD=
EXTT0=
EXTT1=
EXTT2=
EXTT3=
EXTT4=
EXTT5=
EXTT6=
EXTT7=
EXTT8=
EXTT9=
EXTT10=
EXTT11=
EXTT12=
EXTT13=
EXTT14=
EXTT15=
PLAYORDER=
